<?xml version="1.0" encoding="utf-8"?>
<!-- Generator: Adobe Illustrator 27.8.1, SVG Export Plug-In . SVG Version: 6.00 Build 0)  -->
<svg version="1.1" id="Layer_1" xmlns="http://www.w3.org/2000/svg" xmlns:xlink="http://www.w3.org/1999/xlink" x="0px" y="0px"
	 viewBox="0 0 512 512" style="enable-background:new 0 0 512 512;" xml:space="preserve">
<style type="text/css">
	.st0{fill:#B1B4B6;}
</style>
<g>
	<path class="st0" d="M123.3,118.9c11.4,0,20.7-9.3,20.7-20.7c0-11.4-9.3-20.7-20.7-20.7c-11.4,0-20.7,9.3-20.7,20.7
		C102.6,109.6,111.9,118.9,123.3,118.9z M123.3,90.3c4.4,0,7.9,3.5,7.9,7.9c0,4.4-3.5,7.9-7.9,7.9c-4.4,0-7.9-3.5-7.9-7.9
		C115.4,93.8,119,90.3,123.3,90.3z"/>
	<path class="st0" d="M324.5,118.9c11.4,0,20.7-9.3,20.7-20.7c0-11.4-9.3-20.7-20.7-20.7c-11.4,0-20.7,9.3-20.7,20.7
		C303.8,109.6,313.1,118.9,324.5,118.9L324.5,118.9z M324.5,90.3c4.4,0,7.9,3.5,7.9,7.9c0,4.4-3.5,7.9-7.9,7.9
		c-4.4,0-7.9-3.5-7.9-7.9C316.6,93.8,320.2,90.3,324.5,90.3L324.5,90.3z"/>
	<path class="st0" d="M223.9,118.9c11.4,0,20.7-9.3,20.7-20.7c0-11.4-9.3-20.7-20.7-20.7c-11.4,0-20.7,9.3-20.7,20.7
		C203.2,109.6,212.5,118.9,223.9,118.9z M223.9,90.3c4.4,0,7.9,3.5,7.9,7.9c0,4.4-3.5,7.9-7.9,7.9c-4.4,0-7.9-3.5-7.9-7.9
		C216,93.8,219.6,90.3,223.9,90.3z"/>
	<path class="st0" d="M150.4,181.3h-54c-3.5,0-6.4,2.9-6.4,6.4v54c0,3.5,2.9,6.4,6.4,6.4h54c3.5,0,6.4-2.9,6.4-6.4v-54
		C156.8,184.1,153.9,181.3,150.4,181.3z M144,235.3h-41.2v-41.2H144V235.3z"/>
	<path class="st0" d="M150.4,289.3h-54c-3.5,0-6.4,2.9-6.4,6.4v54c0,3.5,2.9,6.4,6.4,6.4h54c3.5,0,6.4-2.9,6.4-6.4v-54
		C156.8,292.2,153.9,289.3,150.4,289.3z M144,343.4h-41.2v-41.2H144V343.4z"/>
	<path class="st0" d="M196.9,248.1h54c3.5,0,6.4-2.9,6.4-6.4v-54c0-3.5-2.9-6.4-6.4-6.4h-54c-3.5,0-6.4,2.9-6.4,6.4v54
		C190.5,245.2,193.4,248.1,196.9,248.1z M203.3,194.1h41.2v41.2h-41.2V194.1z"/>
	<path class="st0" d="M244,302.1c3.5,0,6.4-2.9,6.4-6.4c0-3.5-2.9-6.4-6.4-6.4h-47.1c-3.5,0-6.4,2.9-6.4,6.4v54
		c0,3.5,2.9,6.4,6.4,6.4H234c3.5,0,6.4-2.9,6.4-6.4s-2.9-6.4-6.4-6.4h-30.7v-41.2H244z"/>
	<path class="st0" d="M297.5,239.4c3.5,0,6.4-2.9,6.4-6.4v-38.9h41.2v22.5c0,3.5,2.9,6.4,6.4,6.4c3.5,0,6.4-2.9,6.4-6.4v-28.9
		c0-3.5-2.9-6.4-6.4-6.4h-54c-3.5,0-6.4,2.9-6.4,6.4V233C291.1,236.6,294,239.4,297.5,239.4L297.5,239.4z"/>
	<path class="st0" d="M409.4,241.5V79.4c0-14-11.4-25.5-25.5-25.5h-320c-14,0-25.5,11.4-25.5,25.5v301.4c0,14,11.4,25.5,25.5,25.5
		h198c0.6,0,1.2-0.2,1.8-0.4c20.3,31.4,55.7,52.2,95.8,52.2c62.9,0,114.1-51.2,114.1-114.1C473.5,299,447.3,260.1,409.4,241.5z
		 M63.9,66.7h320c7,0,12.7,5.7,12.7,12.7V128H51.3V79.4C51.3,72.4,56.9,66.7,63.9,66.7L63.9,66.7z M63.9,393.4
		c-7,0-12.7-5.7-12.7-12.7v-240h345.3v95.4c-11.7-4-24.1-6.2-37.1-6.2c-62.9,0-114.1,51.2-114.1,114.1c0,17.7,4,34.4,11.3,49.4
		L63.9,393.4L63.9,393.4z M359.5,445.3c-55.8,0-101.3-45.4-101.3-101.3s45.4-101.3,101.3-101.3S460.7,288.2,460.7,344
		S415.3,445.3,359.5,445.3z"/>
	<path class="st0" d="M429.8,337.6h-63.9v-63.9c0-3.5-2.9-6.4-6.4-6.4s-6.4,2.9-6.4,6.4v63.9h-63.9c-3.5,0-6.4,2.9-6.4,6.4
		s2.9,6.4,6.4,6.4h63.9v63.9c0,3.5,2.9,6.4,6.4,6.4s6.4-2.9,6.4-6.4v-63.9h63.9c3.5,0,6.4-2.9,6.4-6.4S433.4,337.6,429.8,337.6z"/>
</g>
</svg>
