<?xml version="1.0" encoding="utf-8"?>
<!-- Generator: Adobe Illustrator 27.8.1, SVG Export Plug-In . SVG Version: 6.00 Build 0)  -->
<svg version="1.1" id="Capa_1" xmlns="http://www.w3.org/2000/svg" xmlns:xlink="http://www.w3.org/1999/xlink" x="0px" y="0px"
	 viewBox="0 0 400 480" style="enable-background:new 0 0 400 480;" xml:space="preserve">
<style type="text/css">
	.st0{fill:#1D70B8;}
</style>
<g>
	<g>
		<path class="st0" d="M120,344h-16c-4.4,0-8,3.6-8,8s3.6,8,8,8h16c4.4,0,8-3.6,8-8S124.4,344,120,344z"/>
	</g>
</g>
<g>
	<g>
		<path class="st0" d="M344,344H152c-4.4,0-8,3.6-8,8s3.6,8,8,8h192c4.4,0,8-3.6,8-8S348.4,344,344,344z"/>
	</g>
</g>
<g>
	<g>
		<path class="st0" d="M120,296h-16c-4.4,0-8,3.6-8,8s3.6,8,8,8h16c4.4,0,8-3.6,8-8S124.4,296,120,296z"/>
	</g>
</g>
<g>
	<g>
		<path class="st0" d="M344,296H152c-4.4,0-8,3.6-8,8s3.6,8,8,8h192c4.4,0,8-3.6,8-8S348.4,296,344,296z"/>
	</g>
</g>
<g>
	<g>
		<path class="st0" d="M120,248h-16c-4.4,0-8,3.6-8,8c0,4.4,3.6,8,8,8h16c4.4,0,8-3.6,8-8C128,251.6,124.4,248,120,248z"/>
	</g>
</g>
<g>
	<g>
		<path class="st0" d="M344,248H152c-4.4,0-8,3.6-8,8c0,4.4,3.6,8,8,8h192c4.4,0,8-3.6,8-8C352,251.6,348.4,248,344,248z"/>
	</g>
</g>
<g>
	<g>
		<path class="st0" d="M120,200h-16c-4.4,0-8,3.6-8,8s3.6,8,8,8h16c4.4,0,8-3.6,8-8S124.4,200,120,200z"/>
	</g>
</g>
<g>
	<g>
		<path class="st0" d="M344,200H152c-4.4,0-8,3.6-8,8s3.6,8,8,8h192c4.4,0,8-3.6,8-8S348.4,200,344,200z"/>
	</g>
</g>
<g>
	<g>
		<path class="st0" d="M120,152h-16c-4.4,0-8,3.6-8,8s3.6,8,8,8h16c4.4,0,8-3.6,8-8S124.4,152,120,152z"/>
	</g>
</g>
<g>
	<g>
		<path class="st0" d="M344,152H152c-4.4,0-8,3.6-8,8s3.6,8,8,8h192c4.4,0,8-3.6,8-8S348.4,152,344,152z"/>
	</g>
</g>
<g>
	<g>
		<path class="st0" d="M399.9,119.5c0-0.7-0.2-1.4-0.4-2.1c-0.1-0.3-0.2-0.5-0.3-0.8c-0.4-0.9-0.9-1.7-1.6-2.3l-112-112
			c-0.7-0.7-1.5-1.2-2.3-1.6c-0.2-0.1-0.5-0.2-0.7-0.3c-0.7-0.2-1.4-0.4-2.1-0.4c-0.1,0-0.3-0.1-0.5-0.1H56c-4.4,0-8,3.6-8,8v24H8
			c-4.4,0-8,3.6-8,8v432c0,4.4,3.6,8,8,8h336c4.4,0,8-3.6,8-8v-40h40c4.4,0,8-3.6,8-8V120C400,119.8,399.9,119.7,399.9,119.5z
			 M288,27.3l84.7,84.7H288V27.3z M336,464H16V48h32v376c0,4.4,3.6,8,8,8h280V464z M384,416H64V16h208v104c0,4.4,3.6,8,8,8h104V416z
			"/>
	</g>
</g>
<g>
	<g>
		<path class="st0" d="M152,72h-48c-4.4,0-8,3.6-8,8v48c0,4.4,3.6,8,8,8h48c4.4,0,8-3.6,8-8V80C160,75.6,156.4,72,152,72z M144,120
			h-32V88h32V120z"/>
	</g>
</g>
</svg>
