<?xml version="1.0" encoding="utf-8"?>
<!-- Generator: Adobe Illustrator 27.8.1, SVG Export Plug-In . SVG Version: 6.00 Build 0)  -->
<svg version="1.1" id="plus" xmlns="http://www.w3.org/2000/svg" xmlns:xlink="http://www.w3.org/1999/xlink" x="0px" y="0px"
	 viewBox="0 0 16 32" style="enable-background:new 0 0 16 32;" xml:space="preserve">
<style type="text/css">
	.st0{fill:#FFFFFF;}
</style>
<path class="st0" d="M0,6.5v3C0,9.8,0.2,10,0.5,10h15c0.3,0,0.5-0.2,0.5-0.5v-3C16,6.2,15.8,6,15.5,6h-15C0.2,6,0,6.2,0,6.5z"/>
<path class="st0" d="M15.5,22H10v-5.5c0-0.3-0.2-0.5-0.5-0.5h-3C6.2,16,6,16.2,6,16.5V22H0.5C0.2,22,0,22.2,0,22.5v3
	C0,25.8,0.2,26,0.5,26H6v5.5C6,31.8,6.2,32,6.5,32h3c0.3,0,0.5-0.2,0.5-0.5V26h5.5c0.3,0,0.5-0.2,0.5-0.5v-3
	C16,22.2,15.8,22,15.5,22z"/>
</svg>
