<?xml version="1.0" encoding="utf-8"?>
<!-- Generator: Adobe Illustrator 27.8.1, SVG Export Plug-In . SVG Version: 6.00 Build 0)  -->
<svg version="1.1" id="Layer_1" xmlns="http://www.w3.org/2000/svg" xmlns:xlink="http://www.w3.org/1999/xlink" x="0px" y="0px"
	 viewBox="0 0 405.3 426.7" style="enable-background:new 0 0 405.3 426.7;" xml:space="preserve">
<style type="text/css">
	.st0{fill:#505A5F;}
</style>
<g id="Revert">
	<path class="st0" d="M192,0C136.1,0,82.4,22.1,42.7,61.4V21.3C42.7,9.6,33.1,0,21.3,0S0,9.6,0,21.3V128c0,11.8,9.6,21.3,21.3,21.3
		H128c11.8,0,21.3-9.6,21.3-21.3c0-11.8-9.6-21.3-21.3-21.3H59.2c59.1-73.3,166.3-84.8,239.6-25.7s84.8,166.3,25.7,239.6
		s-166.3,84.8-239.6,25.7c-7.2-5.8-14-12.2-20.1-19.1c-7.8-8.9-21.3-9.7-30.1-1.9c-8.9,7.8-9.7,21.3-1.9,30.1
		c0.1,0.1,0.2,0.2,0.3,0.3c78.6,87.8,213.4,95.3,301.2,16.8S429.5,158.9,351,71.1C310.5,25.9,252.7,0,192,0z"/>
</g>
</svg>
