<?xml version="1.0" encoding="utf-8"?>
<!-- Generator: Adobe Illustrator 27.8.1, SVG Export Plug-In . SVG Version: 6.00 Build 0)  -->
<svg version="1.1" id="Layer_1" xmlns="http://www.w3.org/2000/svg" xmlns:xlink="http://www.w3.org/1999/xlink" x="0px" y="0px"
	 viewBox="0 0 359.9 360" style="enable-background:new 0 0 359.9 360;" xml:space="preserve">
<g id="_x32_-Magnifying_Glass">
	<path d="M353.7,323.6l-69.2-69.2c21-27.4,32.5-60.7,32.5-95.9c0-42.3-16.5-82.1-46.4-112.1C240.6,16.5,200.8,0,158.4,0
		c-42.3,0-82.1,16.5-112,46.4c-61.8,61.8-61.8,162.4,0,224.2c29.9,29.9,69.7,46.4,112.1,46.4c35.1,0,68.4-11.5,95.9-32.5l69.2,69.2
		c4.2,4.2,9.6,6.2,15.1,6.2s10.9-2.1,15.1-6.2C362,345.4,362,331.9,353.7,323.6z M76.5,240.4c-45.2-45.2-45.2-118.7,0-163.8
		c21.9-21.9,51-33.9,81.9-33.9s60,12.1,81.9,33.9c21.9,21.9,33.9,51,33.9,81.9s-12.1,60-33.9,81.9s-51,33.9-81.9,33.9
		C127.5,274.4,98.4,262.3,76.5,240.4z"/>
</g>
</svg>
