<?xml version="1.0" encoding="utf-8"?>
<!-- Generator: Adobe Illustrator 23.0.2, SVG Export Plug-In . SVG Version: 6.00 Build 0)  -->
<svg version="1.1" id="Layer_1" xmlns="http://www.w3.org/2000/svg" xmlns:xlink="http://www.w3.org/1999/xlink" x="0px" y="0px"
	 viewBox="0 0 293 492" style="enable-background:new 0 0 293 492;" xml:space="preserve">
<style type="text/css">
	.st0{fill:#1D70B8;}
</style>
<g>
	<g>
		<path class="st0" d="M281.7,226.8L62.7,7.9C57.7,2.8,50.9,0,43.7,0s-14,2.8-19,7.9L8.5,24C-1.9,34.5-1.9,51.6,8.5,62l183.9,183.9
			L8.3,430c-5.1,5.1-7.9,11.8-7.9,19c0,7.2,2.8,14,7.9,19l16.1,16.1c5.1,5.1,11.8,7.9,19,7.9s14-2.8,19-7.9L281.7,265
			c5.1-5.1,7.9-11.9,7.8-19.1C289.5,238.7,286.8,231.9,281.7,226.8z"/>
	</g>
</g>
</svg>
