<?xml version="1.0" encoding="utf-8"?>
<!-- Generator: Adobe Illustrator 23.0.2, SVG Export Plug-In . SVG Version: 6.00 Build 0)  -->
<svg version="1.1" id="Layer_1" xmlns="http://www.w3.org/2000/svg" xmlns:xlink="http://www.w3.org/1999/xlink" x="0px" y="0px"
	 viewBox="0 0 292.5 492" style="enable-background:new 0 0 292.5 492;" xml:space="preserve">
<style type="text/css">
	.st0{fill:#B1B4B6;}
</style>
<g>
	<g>
		<path class="st0" d="M9.2,265.2l219,218.9c5,5.1,11.8,7.9,19,7.9s14-2.8,19-7.9l16.2-16.1c10.4-10.5,10.4-27.6,0-38L98.5,246.1
			L282.6,62c5.1-5.1,7.9-11.8,7.9-19s-2.8-14-7.9-19L266.5,7.9c-5.1-5.1-11.8-7.9-19-7.9s-14,2.8-19,7.9L9.2,227
			c-5.1,5.1-7.9,11.9-7.8,19.1C1.4,253.3,4.1,260.1,9.2,265.2z"/>
	</g>
</g>
</svg>
