<?xml version="1.0" encoding="utf-8"?>
<!-- Generator: Adobe Illustrator 27.8.1, SVG Export Plug-In . SVG Version: 6.00 Build 0)  -->
<svg version="1.1" id="Layer_1" xmlns="http://www.w3.org/2000/svg" xmlns:xlink="http://www.w3.org/1999/xlink" x="0px" y="0px"
	 viewBox="0 0 426.7 426.7" style="enable-background:new 0 0 426.7 426.7;" xml:space="preserve">
<style type="text/css">
	.st0{fill:#1D70B8;}
	.st1{fill:#1D70B8;stroke:#1D70B8;stroke-width:4;stroke-miterlimit:10;}
</style>
<path class="st0" d="M426.7,213.3C426.7,95.5,331.2,0,213.3,0S0,95.5,0,213.3s95.5,213.3,213.3,213.3
	C331.1,426.5,426.5,331.1,426.7,213.3z M21.3,213.3c0-106,86-192,192-192s192,86,192,192s-86,192-192,192
	C107.3,405.2,21.5,319.3,21.3,213.3z"/>
<path class="st1" d="M316.7,179.4c4.8-5.5,4.3-14-1.3-18.8c-5.5-4.8-14-4.3-18.8,1.3l-83.3,95.2L130,161.9
	c-4.8-5.5-13.3-6.1-18.8-1.3c-5.5,4.8-6.1,13.3-1.3,18.8l93.3,106.7c2.5,2.9,6.2,4.6,10,4.6s7.5-1.7,10-4.6L316.7,179.4z"/>
</svg>
