<?xml version="1.0" encoding="utf-8"?>
<!-- Generator: Adobe Illustrator 27.8.1, SVG Export Plug-In . SVG Version: 6.00 Build 0)  -->
<svg version="1.1" id="Capa_1" xmlns="http://www.w3.org/2000/svg" xmlns:xlink="http://www.w3.org/1999/xlink" x="0px" y="0px"
	 viewBox="0 0 390 512" style="enable-background:new 0 0 390 512;" xml:space="preserve">
<style type="text/css">
	.st0{fill:#505A5F;}
</style>
<path class="st0" d="M269,150c-19.3,0-35-15.7-35-35V0H55C24.7,0,0,24.7,0,55v402c0,30.3,24.7,55,55,55h280c30.3,0,55-24.7,55-55
	V150H269z M82,360h72.7c8.3,0,15,6.7,15,15s-6.7,15-15,15H82c-8.3,0-15-6.7-15-15S73.7,360,82,360z M67,295c0-8.3,6.7-15,15-15h220
	c8.3,0,15,6.7,15,15s-6.7,15-15,15H82C73.7,310,67,303.3,67,295z M302,200c8.3,0,15,6.7,15,15s-6.7,15-15,15H82c-8.3,0-15-6.7-15-15
	s6.7-15,15-15H302z"/>
<path class="st0" d="M264,115c0,2.8,2.2,5,5,5h114.3c-2.7-5.1-6.3-9.7-10.5-13.7L276.4,15c-3.7-3.5-7.9-6.5-12.4-8.8L264,115
	L264,115z"/>
</svg>
