<?xml version="1.0" encoding="utf-8"?>
<!-- Generator: Adobe Illustrator 27.8.1, SVG Export Plug-In . SVG Version: 6.00 Build 0)  -->
<svg version="1.1" id="Layer_3" xmlns="http://www.w3.org/2000/svg" xmlns:xlink="http://www.w3.org/1999/xlink" x="0px" y="0px"
	 viewBox="0 0 481.1 416" style="enable-background:new 0 0 481.1 416;" xml:space="preserve">
<style type="text/css">
	.st0{fill:#FFFFFF;}
</style>
<path class="st0" d="M17.1,416h-0.6c-8-0.3-14.6-6.4-15.4-14.4c-0.5-5.8-14-143.7,70.9-238c47.1-52.3,114.7-80.3,201.1-83.3V16
	c0-8.8,7.2-16,16-16c4,0,7.8,1.5,10.8,4.2l176,160c6.5,5.9,7,16.1,1.1,22.6c-0.3,0.4-0.7,0.7-1.1,1.1l-176,160
	c-6.5,5.9-16.7,5.5-22.6-1.1c-2.7-2.9-4.2-6.8-4.2-10.8v-65.5c-49.9-3.6-215.2-5.2-240.3,132.4C31.4,410.5,24.8,416,17.1,416z
	 M305.1,52.2V96c0,8.8-7.2,16-16,16c-84.6,0-149.7,24.6-193.3,73C64,222.5,43.6,268.3,36.9,316.9c79.6-98.6,252.1-77.1,254.3-76.8
	c8,1.1,13.9,7.9,13.9,15.9v43.8L441.3,176L305.1,52.2z"/>
</svg>
