<?xml version="1.0" encoding="utf-8"?>
<!-- Generator: Adobe Illustrator 23.0.2, SVG Export Plug-In . SVG Version: 6.00 Build 0)  -->
<svg version="1.1" id="Layer_1" xmlns="http://www.w3.org/2000/svg" xmlns:xlink="http://www.w3.org/1999/xlink" x="0px" y="0px"
	 viewBox="0 0 341 429" style="enable-background:new 0 0 341 429;" xml:space="preserve">
<g>
	<path d="M91.4,272.2c-3.9,0-6.6,0.4-7.9,0.8v25.1c1.6,0.4,3.6,0.5,6.4,0.5c10.2,0,16.5-5.2,16.5-13.9
		C106.4,276.9,101,272.2,91.4,272.2L91.4,272.2z M165.8,272.4c-4.3,0-7,0.4-8.7,0.8v55.7c1.6,0.4,4.3,0.4,6.7,0.4
		c17.4,0.1,28.8-9.5,28.8-29.8C192.7,281.8,182.3,272.4,165.8,272.4z"/>
	<path d="M213.7,1.7H43c-11.3,0-22.2,4.5-30.2,12.5c-8,8-12.5,18.9-12.5,30.2v341.3c0,11.3,4.5,22.2,12.5,30.2
		c8,8,18.9,12.5,30.2,12.5h256c11.3,0,22.2-4.5,30.2-12.5c8-8,12.5-18.9,12.5-30.2v-256L213.7,1.7z M117.6,304.4
		c-6.6,6.2-16.3,9-27.6,9c-2.2,0-4.4-0.1-6.6-0.4v30.4H64.3v-84c8.6-1.3,17.3-1.9,26-1.7c11.9,0,20.3,2.3,26,6.8
		c5.4,4.3,9.1,11.4,9.1,19.7C125.4,292.5,122.7,299.6,117.6,304.4L117.6,304.4z M198.8,333.3c-9,7.4-22.6,11-39.3,11
		c-10,0-17-0.6-21.8-1.3v-83.6c8.6-1.3,17.3-1.8,26-1.8c16.1,0,26.6,2.9,34.8,9.1c8.9,6.6,14.4,17,14.4,32.1
		C213,315.1,207,326.4,198.8,333.3z M277.7,274.1H245v19.4h30.5v15.7H245v34.2h-19.3v-85.1h52V274.1z M213.7,151h-21.3V44.3L299,151
		H213.7z"/>
</g>
</svg>
