<?xml version="1.0" encoding="utf-8"?>
<!-- Generator: Adobe Illustrator 27.8.1, SVG Export Plug-In . SVG Version: 6.00 Build 0)  -->
<svg version="1.1" id="Layer_1" xmlns="http://www.w3.org/2000/svg" xmlns:xlink="http://www.w3.org/1999/xlink" x="0px" y="0px"
	 viewBox="0 0 480 416" style="enable-background:new 0 0 480 416;" xml:space="preserve">
<style type="text/css">
	.st0{fill:#505A5F;}
</style>
<path id="Reply" class="st0" d="M464,416c-6,0-11.6-3.3-14.3-8.8c-29.6-59.2-57.7-115.3-209.7-119V400c0,6.4-3.8,12.1-9.6,14.7
	s-12.6,1.4-17.3-2.9l-208-192c-3.3-3-5.1-7.3-5.1-11.7s1.9-8.7,5.1-11.8l208-192c4.7-4.3,11.5-5.4,17.3-2.9
	c5.8,2.6,9.6,8.3,9.6,14.7v112.2c221.6,5.5,240,126.4,240,271.8c0,7.4-5.1,13.9-12.3,15.6C466.5,415.9,465.2,416,464,416L464,416z
	 M39.6,208L208,363.4V272c0-8.8,7.2-16,16-16c132.7,0,189.2,37,222.3,81.5C438.8,228.4,400.8,160,224,160c-8.8,0-16-7.2-16-16V52.5
	L39.6,208z"/>
</svg>
