<?xml version="1.0" encoding="utf-8"?>
<!-- Generator: Adobe Illustrator 27.8.1, SVG Export Plug-In . SVG Version: 6.00 Build 0)  -->
<svg version="1.1" id="Layer_1" xmlns="http://www.w3.org/2000/svg" xmlns:xlink="http://www.w3.org/1999/xlink" x="0px" y="0px"
	 viewBox="0 0 512 512" style="enable-background:new 0 0 512 512;" xml:space="preserve">
<style type="text/css">
	.st0{fill:#00703C;}
</style>
<g id="Layer_22">
	<path class="st0" d="M365.7,274.7l-91.6-0.6l0.6,91.6c0.3,10-7.5,18.4-17.6,18.8c-0.4,0-0.8,0-1.2,0c-4.8,0-9.5-2-12.8-5.4
		c-3.4-3.4-5.2-8-5.3-12.7v-92.2l-91.6,0.6c-4.8,0-9.3-1.9-12.7-5.3c-3.4-3.4-5.4-8-5.4-12.8c0-10,8.1-18.1,18.1-18.1l91.6-0.6v-91
		c0.8-10,9.5-17.5,19.5-16.7c8.9,0.7,16,7.8,16.7,16.7v91h91c10.2-0.2,18.6,7.9,18.8,18.1C384,266.2,375.9,274.6,365.7,274.7z
		 M256,510.4C115.5,510.4,1.6,396.5,1.6,256C1.7,115.5,115.5,1.6,256,1.6c140.5,0,254.3,113.9,254.4,254.4
		C510.4,396.5,396.5,510.4,256,510.4C256,510.4,256,510.4,256,510.4z M474.2,256c-0.2-120.4-98-217.9-218.4-217.7
		c-120.4,0.2-217.9,98-217.7,218.4c0.2,120.1,97.5,217.4,217.7,217.7c120.4,0.2,218.2-97.2,218.4-217.7
		C474.2,256.5,474.2,256.2,474.2,256z"/>
</g>
</svg>
