<?xml version="1.0" encoding="utf-8"?>
<!-- Generator: Adobe Illustrator 27.8.1, SVG Export Plug-In . SVG Version: 6.00 Build 0)  -->
<svg version="1.1" id="Layer_1" xmlns="http://www.w3.org/2000/svg" xmlns:xlink="http://www.w3.org/1999/xlink" x="0px" y="0px"
	 viewBox="0 0 492 290" style="enable-background:new 0 0 492 290;" xml:space="preserve">
<g>
	<g>
		<path d="M226.8,9.2L7.9,228.1c-5.1,5.1-7.9,11.8-7.9,19s2.8,14,7.9,19L24,282.2c10.5,10.5,27.6,10.5,38.1,0L245.9,98.5L430,282.6
			c5.1,5.1,11.8,7.9,19,7.9s14-2.8,19-7.9l16.1-16.2c5.1-5.1,7.9-11.8,7.9-19s-2.8-14-7.9-19L265,9.2c-5.1-5.1-11.9-7.9-19.1-7.8
			C238.7,1.4,231.9,4.2,226.8,9.2z"/>
	</g>
</g>
</svg>
