<?xml version="1.0" encoding="utf-8"?>
<!-- Generator: Adobe Illustrator 23.0.2, SVG Export Plug-In . SVG Version: 6.00 Build 0)  -->
<svg version="1.1" id="Layer_1" xmlns="http://www.w3.org/2000/svg" xmlns:xlink="http://www.w3.org/1999/xlink" x="0px" y="0px"
	 viewBox="0 0 492 290" style="enable-background:new 0 0 492 290;" xml:space="preserve">
<style type="text/css">
	.st0{fill:#1D70B8;}
</style>
<g>
	<g>
		<path class="st0" d="M265.2,282.7L484.1,63.8c5.1-5.1,7.9-11.8,7.9-19s-2.8-14-7.9-19L468,9.7c-10.5-10.5-27.6-10.5-38.1,0
			L246.1,193.4L62,9.3c-5.1-5.1-11.8-7.9-19-7.9S29,4.2,24,9.3L7.9,25.5C2.8,30.6,0,37.3,0,44.5s2.8,14,7.9,19L227,282.7
			c5.1,5.1,11.9,7.9,19.1,7.8C253.3,290.5,260.1,287.7,265.2,282.7z"/>
	</g>
</g>
</svg>
