<?xml version="1.0" encoding="utf-8"?>
<!-- Generator: Adobe Illustrator 27.8.1, SVG Export Plug-In . SVG Version: 6.00 Build 0)  -->
<svg version="1.1" id="Capa_1" xmlns="http://www.w3.org/2000/svg" xmlns:xlink="http://www.w3.org/1999/xlink" x="0px" y="0px"
	 viewBox="0 0 512 512" style="enable-background:new 0 0 512 512;" xml:space="preserve">
<style type="text/css">
	.st0{fill:#1D70B8;}
</style>
<g>
	<path class="st0" d="M165.3,118.1l4.8-24.7c3.4-17.2,18.5-29.7,36-29.7h99.7c17.6,0,32.7,12.4,36,29.7l4.8,24.7h64.9l-7.2-36.9
		C395.2,34.2,353.8,0,305.8,0h-99.7c-47.9,0-89.4,34.2-98.6,81.2l-7.2,36.9H165.3z"/>
	<g>
		<path class="st0" d="M435.8,358.4H327.2c-5.2,17.3-21.3,30-40.3,30H225c-19,0-35.1-12.7-40.3-30H76.2c-29.8,0-56.8-12.4-76.1-32.3
			v117.1c0,38,30.8,68.7,68.7,68.7h374.4c38,0,68.7-30.8,68.7-68.7V326.2C492.7,346,465.7,358.4,435.8,358.4z"/>
		<path class="st0" d="M481.2,148.1H30.8c-17,0-30.7,13.8-30.7,30.7v73.5c0,42,34.1,76.1,76.1,76.1H183v-18c0-23.2,18.8-42,42-42
			H287c23.2,0,42,18.8,42,42v18h106.9c42,0,76.1-34.1,76.1-76.1v-73.5C512,161.8,498.2,148.1,481.2,148.1L481.2,148.1z"/>
		<path class="st0" d="M225,358.4c-6.6,0-12-5.4-12-12v-35.9c0-6.6,5.4-12,12-12H287c6.6,0,12,5.4,12,12v35.9c0,6.6-5.4,12-12,12
			H225z"/>
	</g>
</g>
</svg>
