<?xml version="1.0" encoding="utf-8"?>
<!-- Generator: Adobe Illustrator 27.8.1, SVG Export Plug-In . SVG Version: 6.00 Build 0)  -->
<svg version="1.1" id="Layer_1" xmlns="http://www.w3.org/2000/svg" xmlns:xlink="http://www.w3.org/1999/xlink" x="0px" y="0px"
	 viewBox="0 0 512 512" style="enable-background:new 0 0 512 512;" xml:space="preserve">
<g id="Layer_22">
	<path d="M484.6,92.9L319.6,255.5l164.9,162.6c18.5,17.3,19.5,46.4,2.1,64.9c-0.7,0.7-1.4,1.4-2.1,2.1c-8.7,8.6-20.4,13.4-32.6,13.3
		c-12.1-0.1-23.6-4.8-32.2-13.3L254.9,320.3L92.2,485.3c-8.6,8.5-20.1,13.3-32.2,13.3c-12.2,0.1-23.9-4.7-32.6-13.3
		c-17.8-17.9-17.8-46.9,0-64.8l162.6-164.9L27.4,92.9c-16.5-19.3-14.3-48.3,5-64.8c17.2-14.7,42.6-14.7,59.8,0l162.6,162.6
		L417.5,28.1c17.9-18.5,47.4-19,65.9-1.1S502.5,74.4,484.6,92.9z"/>
</g>
</svg>
