<?xml version="1.0" encoding="utf-8"?>
<!-- Generator: Adobe Illustrator 27.8.1, SVG Export Plug-In . SVG Version: 6.00 Build 0)  -->
<svg version="1.1" id="Capa_1" xmlns="http://www.w3.org/2000/svg" xmlns:xlink="http://www.w3.org/1999/xlink" x="0px" y="0px"
	 viewBox="0 0 490.8 490.8" style="enable-background:new 0 0 490.8 490.8;" xml:space="preserve">
<style type="text/css">
	.st0{fill:#FFFFFF;}
</style>
<g>
	<g>
		<path class="st0" d="M364.8,299.6c46.3-75.8,36.9-176.3-28.6-241.9c-76.8-76.8-201.8-76.8-278.6,0s-76.8,201.8,0,278.5
			c65.5,65.5,166,74.9,241.9,28.6L412,477.3c18,18,47.3,18,65.3,0s18-47.3,0-65.3L364.8,299.6z M295.5,295.6
			c-54.4,54.4-142.8,54.4-197.1,0C44,241.2,44,152.8,98.4,98.4c54.4-54.4,142.8-54.4,197.1,0C349.8,152.8,349.8,241.2,295.5,295.6z
			 M220,172h59.4v45.3H220v59.4h-45.3v-59.4h-59.3V172h59.4v-59.4h45.3L220,172L220,172z"/>
	</g>
</g>
</svg>
